# xmcd CD database file
#
# Track frame offsets:
#	150
#	4720
#	20757
#	31520
#	55512
#	79687
#	111800
#	140137
#	157397
#	181377
#	202255
#
# Disc length: 3045 seconds
#
# Revision: 0
# Processed by: cddbd v1.5.1PL0 Copyright (c) Steve Scherf et al.
# Submitted via: CDex 1.51
#
DISCID=910be30b
DTITLE=JIM SPIDER - WITH A GHOST
DYEAR=1999
DGENRE=Rock
TTITLE0=FIRE STONE
TTITLE1=REAL MYSTERY WORLD
TTITLE2=WAR
TTITLE3=闇の向こう側
TTITLE4=CRAZY HORSE
TTITLE5=WORKING CLASS
TTITLE6=SOMETHING IN THE WAY
TTITLE7=PEACEMAKER
TTITLE8=BLACK BIRD
TTITLE9=輝く日々
TTITLE10=VAIN
EXTD=YEAR: 1999.10/20
EXTT0=
EXTT1=
EXTT2=
EXTT3=
EXTT4=
EXTT5=
EXTT6=
EXTT7=
EXTT8=
EXTT9=
EXTT10=
PLAYORDER=
